<svg xmlns="http://www.w3.org/2000/svg" width="14" height="17" viewBox="0 0 14 17" fill="none">
<g clip-path="url(#clip0_2461_277)">
<path d="M0 2.65626V1.78126C0 1.36526 0.334 1.03126 0.75 1.03126H4.25L4.544 0.447256C4.60512 0.322028 4.7003 0.216569 4.81864 0.142987C4.93697 0.0694038 5.07365 0.0306787 5.213 0.0312564H8.784C8.92363 0.0311677 9.06052 0.0700611 9.17924 0.143557C9.29797 0.217054 9.39382 0.322234 9.456 0.447256L9.75 1.03126H13.25C13.666 1.03126 14 1.36526 14 1.78126V2.65626C13.9997 2.75563 13.9601 2.85086 13.8899 2.92113C13.8196 2.9914 13.7244 3.03099 13.625 3.03126H0.375C0.275625 3.03099 0.180396 2.9914 0.110127 2.92113C0.0398575 2.85086 0.000263946 2.75563 0 2.65626H0ZM13 4.40626V14.5313C13 14.9291 12.842 15.3106 12.5607 15.5919C12.2794 15.8732 11.8978 16.0313 11.5 16.0313H2.5C2.10218 16.0313 1.72064 15.8732 1.43934 15.5919C1.15804 15.3106 1 14.9291 1 14.5313V4.40626C1 4.20026 1.169 4.03126 1.375 4.03126H12.625C12.831 4.03126 13 4.20026 13 4.40626ZM4.5 6.53126C4.5 6.25626 4.275 6.03126 4 6.03126C3.725 6.03126 3.5 6.25626 3.5 6.53126V13.5313C3.5 13.8063 3.725 14.0313 4 14.0313C4.275 14.0313 4.5 13.8063 4.5 13.5313V6.53126ZM7.5 6.53126C7.5 6.25626 7.275 6.03126 7 6.03126C6.725 6.03126 6.5 6.25626 6.5 6.53126V13.5313C6.5 13.8063 6.725 14.0313 7 14.0313C7.275 14.0313 7.5 13.8063 7.5 13.5313V6.53126ZM10.5 6.53126C10.5 6.25626 10.275 6.03126 10 6.03126C9.725 6.03126 9.5 6.25626 9.5 6.53126V13.5313C9.5 13.8063 9.725 14.0313 10 14.0313C10.275 14.0313 10.5 13.8063 10.5 13.5313V6.53126Z" fill="#C3CAD9"/>
</g>
<defs>
<clipPath id="clip0_2461_277">
<rect width="14" height="16" fill="white" transform="translate(0 0.03125)"/>
</clipPath>
</defs>
</svg>